<svg class="main-logo" style="width:7em;margin-right:1em" viewBox="0 0 555 404">
  <defs/>
  <g fill="none" fill-rule="evenodd" class="filled" transform="translate(-8 -83)">
    <path stroke="var(--logo-color)" stroke-linecap="square" stroke-width="7" d="M22.5 163.5h150l.5-36.5"/>
    <circle cx="22.5" cy="163.5" r="14.5" fill="var(--logo-color)" fill-rule="nonzero" class="filled"/>
    <path stroke="var(--logo-color)" stroke-linecap="square" stroke-width="7" d="M22.5 197.5h150"/>
    <circle cx="22.5" cy="197.5" r="14.5" fill="var(--logo-color)" fill-rule="nonzero" class="filled"/>
    <path fill="var(--logo-color)" fill-rule="nonzero" d="M158 183h29v29h-29z" class="filled"/>
    <path stroke="var(--logo-color)" stroke-linecap="square" stroke-width="7" d="M22.5 231.5h150"/>
    <circle cx="22.5" cy="231.5" r="14.5" fill="var(--logo-color)" fill-rule="nonzero" class="filled"/>
    <path stroke="var(--logo-color)" stroke-linecap="square" stroke-width="7" d="M22.5 265.5h150"/>
    <circle cx="22.5" cy="265.5" r="14.5" fill="var(--logo-color)" fill-rule="nonzero" class="filled"/>
    <path stroke="var(--logo-color)" stroke-linecap="square" stroke-width="7" d="M22.5 299.5h150"/>
    <circle cx="22.5" cy="299.5" r="14.5" fill="var(--logo-color)" fill-rule="nonzero" class="filled"/>
    <path fill="var(--logo-color)" fill-rule="nonzero" d="M158 285h29v29h-29z" class="filled"/>
    <path stroke="var(--logo-color)" stroke-linecap="square" stroke-width="7" d="M22.5 333.5l309.5.5v138.29"/>
    <circle cx="22.5" cy="333.5" r="14.5" fill="var(--logo-color)" fill-rule="nonzero" class="filled"/>
    <path stroke="var(--logo-color)" stroke-linecap="square" stroke-width="7" d="M22.5 367.5H285v109.63"/>
    <circle cx="22.5" cy="367.5" r="14.5" fill="var(--logo-color)" fill-rule="nonzero" class="filled"/>
    <path stroke="var(--logo-color)" stroke-linecap="square" stroke-width="7" d="M22.5 401.5h150v41.08"/>
    <circle cx="22.5" cy="401.5" r="14.5" fill="var(--logo-color)" fill-rule="nonzero" class="filled"/>
    <circle cx="548.5" cy="163.5" r="14.5" fill="var(--logo-color)" fill-rule="nonzero" class="filled"/>
    <path stroke="var(--logo-color)" stroke-linecap="square" stroke-width="7" d="M332 97v67h216"/>
    <circle cx="548.5" cy="197.5" r="14.5" fill="var(--logo-color)" fill-rule="nonzero" class="filled"/>
    <path stroke="var(--logo-color)" stroke-linecap="square" stroke-width="7" d="M398 198h150"/>
    <path fill="var(--logo-color)" fill-rule="nonzero" d="M384 183h29v29h-29z" class="filled"/>
    <circle cx="548.5" cy="231.5" r="14.5" fill="var(--logo-color)" fill-rule="nonzero" class="filled"/>
    <path stroke="var(--logo-color)" stroke-linecap="square" stroke-width="7" d="M248 97v135h300"/>
    <circle cx="548.5" cy="265.5" r="14.5" fill="var(--logo-color)" fill-rule="nonzero" class="filled"/>
    <path stroke="var(--logo-color)" stroke-linecap="square" stroke-width="7" d="M285 266h263"/>
    <path fill="var(--logo-color)" fill-rule="nonzero" d="M271 251h29v29h-29z" class="filled"/>
    <circle cx="548.5" cy="299.5" r="14.5" fill="var(--logo-color)" fill-rule="nonzero" class="filled"/>
    <path stroke="var(--logo-color)" stroke-linecap="square" stroke-width="7" d="M398 300h150"/>
    <path fill="var(--logo-color)" fill-rule="nonzero" d="M384 285h29v29h-29z" class="filled"/>
    <circle cx="548.5" cy="333.5" r="14.5" fill="var(--logo-color)" fill-rule="nonzero" class="filled"/>
    <path stroke="var(--logo-color)" stroke-linecap="square" stroke-width="7" d="M398 334h150"/>
    <circle cx="548.5" cy="367.5" r="14.5" fill="var(--logo-color)" fill-rule="nonzero" class="filled"/>
    <path stroke="var(--logo-color)" stroke-linecap="square" stroke-width="7" d="M398 368h150"/>
    <path fill="var(--logo-color)" fill-rule="nonzero" d="M384 353h29v29h-29z" class="filled"/>
    <circle cx="548.5" cy="401.5" r="14.5" fill="var(--logo-color)" fill-rule="nonzero" class="filled"/>
    <path stroke="var(--logo-color)" stroke-linecap="square" stroke-width="7" d="M398 442.58V402h150"/>
    <circle cx="285" cy="285" r="195" stroke="var(--logo-color)" stroke-width="13"/>
  </g>
</svg>